<mxfile host="app.diagrams.net" modified="2023-05-30T12:30:37.206Z" agent="Mozilla/5.0 (Windows NT 10.0; Win64; x64; rv:109.0) Gecko/20100101 Firefox/113.0" etag="WhkpExWwTszUwOsPJT9M" version="21.3.5" type="github">
  <diagram id="C5RBs43oDa-KdzZeNtuy" name="Page-1">
    <mxGraphModel dx="1434" dy="774" grid="1" gridSize="10" guides="1" tooltips="1" connect="1" arrows="1" fold="1" page="1" pageScale="1" pageWidth="827" pageHeight="1169" math="0" shadow="0">
      <root>
        <mxCell id="WIyWlLk6GJQsqaUBKTNV-0" />
        <mxCell id="WIyWlLk6GJQsqaUBKTNV-1" parent="WIyWlLk6GJQsqaUBKTNV-0" />
        <mxCell id="wR3ry0khcVstsgdrLc1c-9" value="" style="edgeStyle=orthogonalEdgeStyle;rounded=0;orthogonalLoop=1;jettySize=auto;html=1;" edge="1" parent="WIyWlLk6GJQsqaUBKTNV-1" source="WIyWlLk6GJQsqaUBKTNV-3" target="wR3ry0khcVstsgdrLc1c-1">
          <mxGeometry relative="1" as="geometry" />
        </mxCell>
        <mxCell id="WIyWlLk6GJQsqaUBKTNV-3" value="Einde schooljaar" style="rounded=1;whiteSpace=wrap;html=1;fontSize=12;glass=0;strokeWidth=1;shadow=0;" parent="WIyWlLk6GJQsqaUBKTNV-1" vertex="1">
          <mxGeometry x="24" y="70" width="120" height="40" as="geometry" />
        </mxCell>
        <mxCell id="wR3ry0khcVstsgdrLc1c-10" value="" style="edgeStyle=orthogonalEdgeStyle;rounded=0;orthogonalLoop=1;jettySize=auto;html=1;" edge="1" parent="WIyWlLk6GJQsqaUBKTNV-1" source="wR3ry0khcVstsgdrLc1c-1" target="wR3ry0khcVstsgdrLc1c-2">
          <mxGeometry relative="1" as="geometry" />
        </mxCell>
        <mxCell id="wR3ry0khcVstsgdrLc1c-1" value="LAS data importeren" style="shape=process;whiteSpace=wrap;html=1;backgroundOutline=1;" vertex="1" parent="WIyWlLk6GJQsqaUBKTNV-1">
          <mxGeometry x="170" y="60" width="120" height="60" as="geometry" />
        </mxCell>
        <mxCell id="wR3ry0khcVstsgdrLc1c-11" value="" style="edgeStyle=orthogonalEdgeStyle;rounded=0;orthogonalLoop=1;jettySize=auto;html=1;" edge="1" parent="WIyWlLk6GJQsqaUBKTNV-1" source="wR3ry0khcVstsgdrLc1c-2" target="wR3ry0khcVstsgdrLc1c-4">
          <mxGeometry relative="1" as="geometry" />
        </mxCell>
        <mxCell id="wR3ry0khcVstsgdrLc1c-2" value="LML data importeren" style="shape=process;whiteSpace=wrap;html=1;backgroundOutline=1;" vertex="1" parent="WIyWlLk6GJQsqaUBKTNV-1">
          <mxGeometry x="313" y="60" width="120" height="60" as="geometry" />
        </mxCell>
        <mxCell id="wR3ry0khcVstsgdrLc1c-12" value="" style="edgeStyle=orthogonalEdgeStyle;rounded=0;orthogonalLoop=1;jettySize=auto;html=1;" edge="1" parent="WIyWlLk6GJQsqaUBKTNV-1" source="wR3ry0khcVstsgdrLc1c-4" target="wR3ry0khcVstsgdrLc1c-6">
          <mxGeometry relative="1" as="geometry" />
        </mxCell>
        <mxCell id="wR3ry0khcVstsgdrLc1c-4" value="Data matchen" style="shape=process;whiteSpace=wrap;html=1;backgroundOutline=1;" vertex="1" parent="WIyWlLk6GJQsqaUBKTNV-1">
          <mxGeometry x="460" y="60" width="120" height="60" as="geometry" />
        </mxCell>
        <mxCell id="wR3ry0khcVstsgdrLc1c-13" value="" style="edgeStyle=orthogonalEdgeStyle;rounded=0;orthogonalLoop=1;jettySize=auto;html=1;" edge="1" parent="WIyWlLk6GJQsqaUBKTNV-1" source="wR3ry0khcVstsgdrLc1c-6" target="wR3ry0khcVstsgdrLc1c-7">
          <mxGeometry relative="1" as="geometry" />
        </mxCell>
        <mxCell id="wR3ry0khcVstsgdrLc1c-6" value="Order aanmaken" style="shape=process;whiteSpace=wrap;html=1;backgroundOutline=1;" vertex="1" parent="WIyWlLk6GJQsqaUBKTNV-1">
          <mxGeometry x="603" y="60" width="120" height="60" as="geometry" />
        </mxCell>
        <mxCell id="wR3ry0khcVstsgdrLc1c-7" value="Done!" style="rounded=1;whiteSpace=wrap;html=1;fontSize=12;glass=0;strokeWidth=1;shadow=0;" vertex="1" parent="WIyWlLk6GJQsqaUBKTNV-1">
          <mxGeometry x="747" y="70" width="120" height="40" as="geometry" />
        </mxCell>
      </root>
    </mxGraphModel>
  </diagram>
</mxfile>
